<svg width="1440" height="1024" viewBox="0 0 1440 1024" fill="none" xmlns="http://www.w3.org/2000/svg">
<path d="M-71 1.87115C-71 0.837734 -69.8756 0 -68.4886 0H1846.49C1847.88 0 1849 0.837753 1849 1.87117V1022.13C1849 1023.16 1847.88 1024 1846.49 1024H-68.4886C-69.8756 1024 -71 1023.16 -71 1022.13V1.87115Z" fill="url(#paint0_linear_0_1)"/>
<g opacity="0.58">
<line x1="28.6218" y1="1070.07" x2="28.6218" y2="-46.48" stroke="white" stroke-width="7"/>
<line x1="83.6787" y1="1070.07" x2="83.6787" y2="-46.4799" stroke="white" stroke-width="7"/>
<line x1="138.736" y1="1070.07" x2="138.736" y2="-46.4799" stroke="white" stroke-width="7"/>
<line x1="193.792" y1="1070.07" x2="193.792" y2="-46.4799" stroke="white" stroke-width="7"/>
<line x1="248.85" y1="1070.07" x2="248.85" y2="-46.4799" stroke="white" stroke-width="7"/>
<line x1="303.906" y1="1070.07" x2="303.906" y2="-46.48" stroke="white" stroke-width="7"/>
<line x1="358.963" y1="1070.07" x2="358.963" y2="-46.48" stroke="white" stroke-width="7"/>
<line x1="414.02" y1="1070.07" x2="414.02" y2="-46.48" stroke="white" stroke-width="7"/>
<line x1="469.077" y1="1070.07" x2="469.077" y2="-46.48" stroke="white" stroke-width="7"/>
<line x1="524.134" y1="1070.07" x2="524.134" y2="-46.48" stroke="white" stroke-width="7"/>
<line x1="579.191" y1="1070.07" x2="579.191" y2="-46.48" stroke="white" stroke-width="7"/>
<line x1="634.247" y1="1070.07" x2="634.247" y2="-46.48" stroke="white" stroke-width="7"/>
<line x1="689.305" y1="1070.07" x2="689.305" y2="-46.4799" stroke="white" stroke-width="7"/>
<line x1="744.361" y1="1070.07" x2="744.361" y2="-46.48" stroke="white" stroke-width="7"/>
<line x1="799.418" y1="1070.07" x2="799.418" y2="-46.4799" stroke="white" stroke-width="7"/>
<line x1="854.475" y1="1070.07" x2="854.475" y2="-46.4799" stroke="white" stroke-width="7"/>
<line x1="909.532" y1="1070.07" x2="909.532" y2="-46.4799" stroke="white" stroke-width="7"/>
<line x1="964.589" y1="1070.07" x2="964.589" y2="-46.4799" stroke="white" stroke-width="7"/>
<line x1="1019.65" y1="1070.07" x2="1019.65" y2="-46.4799" stroke="white" stroke-width="7"/>
<line x1="1074.7" y1="1070.07" x2="1074.7" y2="-46.4799" stroke="white" stroke-width="7"/>
<line x1="1129.76" y1="1070.07" x2="1129.76" y2="-46.4801" stroke="white" stroke-width="7"/>
<line x1="1184.82" y1="1070.07" x2="1184.82" y2="-46.4801" stroke="white" stroke-width="7"/>
<line x1="1239.87" y1="1070.07" x2="1239.87" y2="-46.4801" stroke="white" stroke-width="7"/>
<line x1="1294.93" y1="1070.07" x2="1294.93" y2="-46.4801" stroke="white" stroke-width="7"/>
<line x1="1349.99" y1="1070.07" x2="1349.99" y2="-46.4801" stroke="white" stroke-width="7"/>
<line x1="1405.04" y1="1070.07" x2="1405.04" y2="-46.4801" stroke="white" stroke-width="7"/>
<line x1="1814.5" y1="1010.81" x2="-666" y2="1010.81" stroke="white" stroke-width="7"/>
<line x1="1814.5" y1="955.752" x2="-666" y2="955.752" stroke="white" stroke-width="7"/>
<line x1="1814.5" y1="900.695" x2="-666" y2="900.695" stroke="white" stroke-width="7"/>
<line x1="1814.5" y1="845.638" x2="-666" y2="845.638" stroke="white" stroke-width="7"/>
<line x1="1814.5" y1="790.581" x2="-666" y2="790.581" stroke="white" stroke-width="7"/>
<line x1="1814.5" y1="735.524" x2="-666" y2="735.525" stroke="white" stroke-width="7"/>
<line x1="1814.5" y1="680.468" x2="-666" y2="680.468" stroke="white" stroke-width="7"/>
<line x1="1814.5" y1="625.411" x2="-666" y2="625.411" stroke="white" stroke-width="7"/>
<line x1="1814.5" y1="570.354" x2="-666" y2="570.354" stroke="white" stroke-width="7"/>
<line x1="1814.5" y1="515.297" x2="-666" y2="515.297" stroke="white" stroke-width="7"/>
<line x1="1814.5" y1="460.24" x2="-666" y2="460.24" stroke="white" stroke-width="7"/>
<line x1="1814.5" y1="405.183" x2="-666" y2="405.183" stroke="white" stroke-width="7"/>
<line x1="1814.5" y1="350.126" x2="-666" y2="350.126" stroke="white" stroke-width="7"/>
<line x1="1814.5" y1="295.069" x2="-666" y2="295.069" stroke="white" stroke-width="7"/>
<line x1="1814.5" y1="240.013" x2="-666" y2="240.013" stroke="white" stroke-width="7"/>
<line x1="1814.5" y1="184.956" x2="-666" y2="184.956" stroke="white" stroke-width="7"/>
<line x1="1814.5" y1="129.899" x2="-666" y2="129.899" stroke="white" stroke-width="7"/>
<line x1="1814.5" y1="74.8418" x2="-666" y2="74.842" stroke="white" stroke-width="7"/>
<line x1="1814.5" y1="19.7848" x2="-666" y2="19.785" stroke="white" stroke-width="7"/>
</g>
<defs>
<linearGradient id="paint0_linear_0_1" x1="889" y1="0" x2="889" y2="1024" gradientUnits="userSpaceOnUse">
<stop stop-color="#E4A8FF"/>
<stop offset="0.516667" stop-color="#FF97BA"/>
<stop offset="1" stop-color="#FF918F"/>
</linearGradient>
</defs>
</svg>
