<svg width="1585" height="958" viewBox="0 0 1585 958" fill="none" xmlns="http://www.w3.org/2000/svg">
<g opacity="0.58">
<line x1="99.4314" y1="957.412" x2="99.4314" y2="-13.2669" stroke="url(#paint0_linear_114_2)" stroke-width="7"/>
<line x1="136.076" y1="957.412" x2="136.076" y2="-13.2669" stroke="url(#paint1_linear_114_2)" stroke-width="7"/>
<line x1="26.1423" y1="957.412" x2="26.1423" y2="-13.2669" stroke="url(#paint2_linear_114_2)" stroke-width="7"/>
<line x1="62.7869" y1="957.412" x2="62.7868" y2="-13.2669" stroke="url(#paint3_linear_114_2)" stroke-width="7"/>
<line x1="172.72" y1="957.412" x2="172.72" y2="-13.2669" stroke="url(#paint4_linear_114_2)" stroke-width="7"/>
<line x1="209.365" y1="957.412" x2="209.365" y2="-13.2669" stroke="url(#paint5_linear_114_2)" stroke-width="7"/>
<line x1="246.009" y1="957.412" x2="246.009" y2="-13.2669" stroke="url(#paint6_linear_114_2)" stroke-width="7"/>
<line x1="282.654" y1="957.412" x2="282.654" y2="-13.2669" stroke="url(#paint7_linear_114_2)" stroke-width="7"/>
<line x1="319.298" y1="957.412" x2="319.298" y2="-13.2669" stroke="url(#paint8_linear_114_2)" stroke-width="7"/>
<line x1="355.943" y1="957.412" x2="355.943" y2="-13.2669" stroke="url(#paint9_linear_114_2)" stroke-width="7"/>
<line x1="392.587" y1="957.412" x2="392.587" y2="-13.2669" stroke="url(#paint10_linear_114_2)" stroke-width="7"/>
<line x1="429.232" y1="957.412" x2="429.232" y2="-13.2669" stroke="url(#paint11_linear_114_2)" stroke-width="7"/>
<line x1="465.876" y1="957.412" x2="465.876" y2="-13.2669" stroke="url(#paint12_linear_114_2)" stroke-width="7"/>
<line x1="502.521" y1="957.412" x2="502.521" y2="-13.2669" stroke="url(#paint13_linear_114_2)" stroke-width="7"/>
<line x1="539.166" y1="957.412" x2="539.165" y2="-13.2669" stroke="url(#paint14_linear_114_2)" stroke-width="7"/>
<line x1="575.81" y1="957.412" x2="575.81" y2="-13.2669" stroke="url(#paint15_linear_114_2)" stroke-width="7"/>
<line x1="612.454" y1="957.412" x2="612.454" y2="-13.2669" stroke="url(#paint16_linear_114_2)" stroke-width="7"/>
<line x1="649.099" y1="957.412" x2="649.099" y2="-13.2669" stroke="url(#paint17_linear_114_2)" stroke-width="7"/>
<line x1="685.744" y1="957.412" x2="685.744" y2="-13.2669" stroke="url(#paint18_linear_114_2)" stroke-width="7"/>
<line x1="722.388" y1="957.412" x2="722.388" y2="-13.2669" stroke="url(#paint19_linear_114_2)" stroke-width="7"/>
<line x1="759.032" y1="957.412" x2="759.032" y2="-13.2669" stroke="url(#paint20_linear_114_2)" stroke-width="7"/>
<line x1="795.677" y1="957.412" x2="795.677" y2="-13.2669" stroke="url(#paint21_linear_114_2)" stroke-width="7"/>
<line x1="832.322" y1="957.412" x2="832.322" y2="-13.2669" stroke="url(#paint22_linear_114_2)" stroke-width="7"/>
<line x1="868.966" y1="957.412" x2="868.966" y2="-13.2669" stroke="url(#paint23_linear_114_2)" stroke-width="7"/>
<line x1="905.61" y1="957.412" x2="905.61" y2="-13.2669" stroke="url(#paint24_linear_114_2)" stroke-width="7"/>
<line x1="942.255" y1="957.412" x2="942.255" y2="-13.2669" stroke="url(#paint25_linear_114_2)" stroke-width="7"/>
<line x1="978.9" y1="957.412" x2="978.9" y2="-13.2669" stroke="url(#paint26_linear_114_2)" stroke-width="7"/>
<line x1="1015.54" y1="957.412" x2="1015.54" y2="-13.2669" stroke="url(#paint27_linear_114_2)" stroke-width="7"/>
<line x1="1052.19" y1="957.412" x2="1052.19" y2="-13.2669" stroke="url(#paint28_linear_114_2)" stroke-width="7"/>
<line x1="1088.83" y1="957.412" x2="1088.83" y2="-13.2669" stroke="url(#paint29_linear_114_2)" stroke-width="7"/>
<line x1="1125.48" y1="957.412" x2="1125.48" y2="-13.2669" stroke="url(#paint30_linear_114_2)" stroke-width="7"/>
<line x1="1162.12" y1="957.412" x2="1162.12" y2="-13.2669" stroke="url(#paint31_linear_114_2)" stroke-width="7"/>
<line x1="1198.77" y1="957.412" x2="1198.77" y2="-13.2669" stroke="url(#paint32_linear_114_2)" stroke-width="7"/>
<line x1="1235.41" y1="957.412" x2="1235.41" y2="-13.2669" stroke="url(#paint33_linear_114_2)" stroke-width="7"/>
<line x1="1272.06" y1="957.412" x2="1272.06" y2="-13.2669" stroke="url(#paint34_linear_114_2)" stroke-width="7"/>
<line x1="1308.7" y1="957.412" x2="1308.7" y2="-13.2669" stroke="url(#paint35_linear_114_2)" stroke-width="7"/>
<line x1="1345.34" y1="957.412" x2="1345.34" y2="-13.2669" stroke="url(#paint36_linear_114_2)" stroke-width="7"/>
<line x1="1381.99" y1="957.412" x2="1381.99" y2="-13.2669" stroke="url(#paint37_linear_114_2)" stroke-width="7"/>
<line x1="1418.63" y1="957.412" x2="1418.63" y2="-13.2669" stroke="url(#paint38_linear_114_2)" stroke-width="7"/>
<line x1="1455.28" y1="957.412" x2="1455.28" y2="-13.2669" stroke="url(#paint39_linear_114_2)" stroke-width="7"/>
<line x1="1491.92" y1="957.412" x2="1491.92" y2="-13.2669" stroke="url(#paint40_linear_114_2)" stroke-width="7"/>
<line x1="1528.57" y1="957.412" x2="1528.57" y2="-13.2669" stroke="url(#paint41_linear_114_2)" stroke-width="7"/>
<line x1="1565.21" y1="957.412" x2="1565.21" y2="-13.2669" stroke="url(#paint42_linear_114_2)" stroke-width="7"/>
<line x1="1618.94" y1="923.798" x2="-32.0142" y2="923.798" stroke="url(#paint43_linear_114_2)" stroke-width="7"/>
<line x1="1618.94" y1="886.444" x2="-32.0142" y2="886.444" stroke="url(#paint44_linear_114_2)" stroke-width="7"/>
<line x1="1618.94" y1="849.092" x2="-32.0142" y2="849.092" stroke="url(#paint45_linear_114_2)" stroke-width="7"/>
<line x1="1618.94" y1="811.739" x2="-32.0142" y2="811.739" stroke="url(#paint46_linear_114_2)" stroke-width="7"/>
<line x1="1618.94" y1="774.386" x2="-32.0142" y2="774.386" stroke="url(#paint47_linear_114_2)" stroke-width="7"/>
<line x1="1618.94" y1="737.033" x2="-32.0142" y2="737.033" stroke="url(#paint48_linear_114_2)" stroke-width="7"/>
<line x1="1618.94" y1="699.68" x2="-32.0142" y2="699.68" stroke="url(#paint49_linear_114_2)" stroke-width="7"/>
<line x1="1618.94" y1="662.327" x2="-32.0142" y2="662.327" stroke="url(#paint50_linear_114_2)" stroke-width="7"/>
<line x1="1618.94" y1="624.974" x2="-32.0142" y2="624.974" stroke="url(#paint51_linear_114_2)" stroke-width="7"/>
<line x1="1618.94" y1="587.621" x2="-32.0142" y2="587.621" stroke="url(#paint52_linear_114_2)" stroke-width="7"/>
<line x1="1618.94" y1="550.268" x2="-32.0142" y2="550.268" stroke="url(#paint53_linear_114_2)" stroke-width="7"/>
<line x1="1618.94" y1="512.915" x2="-32.0142" y2="512.915" stroke="url(#paint54_linear_114_2)" stroke-width="7"/>
<line x1="1618.94" y1="475.562" x2="-32.0142" y2="475.562" stroke="url(#paint55_linear_114_2)" stroke-width="7"/>
<line x1="1618.94" y1="438.209" x2="-32.0142" y2="438.209" stroke="url(#paint56_linear_114_2)" stroke-width="7"/>
<line x1="1618.94" y1="400.856" x2="-32.0142" y2="400.856" stroke="url(#paint57_linear_114_2)" stroke-width="7"/>
<line x1="1618.94" y1="363.503" x2="-32.0142" y2="363.503" stroke="url(#paint58_linear_114_2)" stroke-width="7"/>
<line x1="1618.94" y1="326.15" x2="-32.0142" y2="326.15" stroke="url(#paint59_linear_114_2)" stroke-width="7"/>
<line x1="1618.94" y1="288.797" x2="-32.0146" y2="288.797" stroke="url(#paint60_linear_114_2)" stroke-width="7"/>
<line x1="1618.94" y1="251.444" x2="-32.0146" y2="251.445" stroke="url(#paint61_linear_114_2)" stroke-width="7"/>
<line x1="1618.94" y1="214.091" x2="-32.0146" y2="214.091" stroke="url(#paint62_linear_114_2)" stroke-width="7"/>
<line x1="1618.94" y1="176.738" x2="-32.0146" y2="176.739" stroke="url(#paint63_linear_114_2)" stroke-width="7"/>
<line x1="1618.94" y1="139.386" x2="-32.0146" y2="139.386" stroke="url(#paint64_linear_114_2)" stroke-width="7"/>
<line x1="1618.94" y1="103.029" x2="-32.0146" y2="103.029" stroke="url(#paint65_linear_114_2)" stroke-width="7"/>
<line x1="1618.94" y1="64.6796" x2="-32.0146" y2="64.6797" stroke="url(#paint66_linear_114_2)" stroke-width="7"/>
<line x1="1618.94" y1="27.3265" x2="-32.0146" y2="27.3266" stroke="url(#paint67_linear_114_2)" stroke-width="7"/>
</g>
<defs>
<linearGradient id="paint0_linear_114_2" x1="103.431" y1="-13.2669" x2="103.431" y2="957.412" gradientUnits="userSpaceOnUse">
<stop stop-color="white"/>
</linearGradient>
<linearGradient id="paint1_linear_114_2" x1="140.076" y1="-13.2669" x2="140.076" y2="957.412" gradientUnits="userSpaceOnUse">
<stop stop-color="white"/>
</linearGradient>
<linearGradient id="paint2_linear_114_2" x1="30.1423" y1="-13.2669" x2="30.1423" y2="957.412" gradientUnits="userSpaceOnUse">
<stop stop-color="white"/>
</linearGradient>
<linearGradient id="paint3_linear_114_2" x1="66.7868" y1="-13.2669" x2="66.7869" y2="957.412" gradientUnits="userSpaceOnUse">
<stop stop-color="white"/>
</linearGradient>
<linearGradient id="paint4_linear_114_2" x1="176.72" y1="-13.2669" x2="176.72" y2="957.412" gradientUnits="userSpaceOnUse">
<stop stop-color="white"/>
</linearGradient>
<linearGradient id="paint5_linear_114_2" x1="213.365" y1="-13.2669" x2="213.365" y2="957.412" gradientUnits="userSpaceOnUse">
<stop stop-color="white"/>
</linearGradient>
<linearGradient id="paint6_linear_114_2" x1="250.009" y1="-13.2669" x2="250.009" y2="957.412" gradientUnits="userSpaceOnUse">
<stop stop-color="white"/>
</linearGradient>
<linearGradient id="paint7_linear_114_2" x1="286.654" y1="-13.2669" x2="286.654" y2="957.412" gradientUnits="userSpaceOnUse">
<stop stop-color="white"/>
</linearGradient>
<linearGradient id="paint8_linear_114_2" x1="323.298" y1="-13.2669" x2="323.298" y2="957.412" gradientUnits="userSpaceOnUse">
<stop stop-color="white"/>
</linearGradient>
<linearGradient id="paint9_linear_114_2" x1="359.943" y1="-13.2669" x2="359.943" y2="957.412" gradientUnits="userSpaceOnUse">
<stop stop-color="white"/>
</linearGradient>
<linearGradient id="paint10_linear_114_2" x1="396.587" y1="-13.2669" x2="396.587" y2="957.412" gradientUnits="userSpaceOnUse">
<stop stop-color="white"/>
</linearGradient>
<linearGradient id="paint11_linear_114_2" x1="433.232" y1="-13.2669" x2="433.232" y2="957.412" gradientUnits="userSpaceOnUse">
<stop stop-color="white"/>
</linearGradient>
<linearGradient id="paint12_linear_114_2" x1="469.876" y1="-13.2669" x2="469.876" y2="957.412" gradientUnits="userSpaceOnUse">
<stop stop-color="white"/>
</linearGradient>
<linearGradient id="paint13_linear_114_2" x1="506.521" y1="-13.2669" x2="506.521" y2="957.412" gradientUnits="userSpaceOnUse">
<stop stop-color="white"/>
</linearGradient>
<linearGradient id="paint14_linear_114_2" x1="543.165" y1="-13.2669" x2="543.166" y2="957.412" gradientUnits="userSpaceOnUse">
<stop stop-color="white"/>
</linearGradient>
<linearGradient id="paint15_linear_114_2" x1="579.81" y1="-13.2669" x2="579.81" y2="957.412" gradientUnits="userSpaceOnUse">
<stop stop-color="white"/>
</linearGradient>
<linearGradient id="paint16_linear_114_2" x1="616.454" y1="-13.2669" x2="616.454" y2="957.412" gradientUnits="userSpaceOnUse">
<stop stop-color="white"/>
</linearGradient>
<linearGradient id="paint17_linear_114_2" x1="653.099" y1="-13.2669" x2="653.099" y2="957.412" gradientUnits="userSpaceOnUse">
<stop stop-color="white"/>
</linearGradient>
<linearGradient id="paint18_linear_114_2" x1="689.744" y1="-13.2669" x2="689.744" y2="957.412" gradientUnits="userSpaceOnUse">
<stop stop-color="white"/>
</linearGradient>
<linearGradient id="paint19_linear_114_2" x1="726.388" y1="-13.2669" x2="726.388" y2="957.412" gradientUnits="userSpaceOnUse">
<stop stop-color="white"/>
</linearGradient>
<linearGradient id="paint20_linear_114_2" x1="763.032" y1="-13.2669" x2="763.032" y2="957.412" gradientUnits="userSpaceOnUse">
<stop stop-color="white"/>
</linearGradient>
<linearGradient id="paint21_linear_114_2" x1="799.677" y1="-13.2669" x2="799.677" y2="957.412" gradientUnits="userSpaceOnUse">
<stop stop-color="white"/>
</linearGradient>
<linearGradient id="paint22_linear_114_2" x1="836.322" y1="-13.2669" x2="836.322" y2="957.412" gradientUnits="userSpaceOnUse">
<stop stop-color="white"/>
</linearGradient>
<linearGradient id="paint23_linear_114_2" x1="872.966" y1="-13.2669" x2="872.966" y2="957.412" gradientUnits="userSpaceOnUse">
<stop stop-color="white"/>
</linearGradient>
<linearGradient id="paint24_linear_114_2" x1="909.61" y1="-13.2669" x2="909.61" y2="957.412" gradientUnits="userSpaceOnUse">
<stop stop-color="white"/>
</linearGradient>
<linearGradient id="paint25_linear_114_2" x1="946.255" y1="-13.2669" x2="946.255" y2="957.412" gradientUnits="userSpaceOnUse">
<stop stop-color="white"/>
</linearGradient>
<linearGradient id="paint26_linear_114_2" x1="982.9" y1="-13.2669" x2="982.9" y2="957.412" gradientUnits="userSpaceOnUse">
<stop stop-color="white"/>
</linearGradient>
<linearGradient id="paint27_linear_114_2" x1="1019.54" y1="-13.2669" x2="1019.54" y2="957.412" gradientUnits="userSpaceOnUse">
<stop stop-color="white"/>
</linearGradient>
<linearGradient id="paint28_linear_114_2" x1="1056.19" y1="-13.2669" x2="1056.19" y2="957.412" gradientUnits="userSpaceOnUse">
<stop stop-color="white"/>
</linearGradient>
<linearGradient id="paint29_linear_114_2" x1="1092.83" y1="-13.2669" x2="1092.83" y2="957.412" gradientUnits="userSpaceOnUse">
<stop stop-color="white"/>
</linearGradient>
<linearGradient id="paint30_linear_114_2" x1="1129.48" y1="-13.2669" x2="1129.48" y2="957.412" gradientUnits="userSpaceOnUse">
<stop stop-color="white"/>
</linearGradient>
<linearGradient id="paint31_linear_114_2" x1="1166.12" y1="-13.2669" x2="1166.12" y2="957.412" gradientUnits="userSpaceOnUse">
<stop stop-color="white"/>
</linearGradient>
<linearGradient id="paint32_linear_114_2" x1="1202.77" y1="-13.2669" x2="1202.77" y2="957.412" gradientUnits="userSpaceOnUse">
<stop stop-color="white"/>
</linearGradient>
<linearGradient id="paint33_linear_114_2" x1="1239.41" y1="-13.2669" x2="1239.41" y2="957.412" gradientUnits="userSpaceOnUse">
<stop stop-color="white"/>
</linearGradient>
<linearGradient id="paint34_linear_114_2" x1="1276.06" y1="-13.2669" x2="1276.06" y2="957.412" gradientUnits="userSpaceOnUse">
<stop stop-color="white"/>
</linearGradient>
<linearGradient id="paint35_linear_114_2" x1="1312.7" y1="-13.2669" x2="1312.7" y2="957.412" gradientUnits="userSpaceOnUse">
<stop stop-color="white"/>
</linearGradient>
<linearGradient id="paint36_linear_114_2" x1="1349.34" y1="-13.2669" x2="1349.34" y2="957.412" gradientUnits="userSpaceOnUse">
<stop stop-color="white"/>
</linearGradient>
<linearGradient id="paint37_linear_114_2" x1="1385.99" y1="-13.2669" x2="1385.99" y2="957.412" gradientUnits="userSpaceOnUse">
<stop stop-color="white"/>
</linearGradient>
<linearGradient id="paint38_linear_114_2" x1="1422.63" y1="-13.2669" x2="1422.63" y2="957.412" gradientUnits="userSpaceOnUse">
<stop stop-color="white"/>
</linearGradient>
<linearGradient id="paint39_linear_114_2" x1="1459.28" y1="-13.2669" x2="1459.28" y2="957.412" gradientUnits="userSpaceOnUse">
<stop stop-color="white"/>
</linearGradient>
<linearGradient id="paint40_linear_114_2" x1="1495.92" y1="-13.2669" x2="1495.92" y2="957.412" gradientUnits="userSpaceOnUse">
<stop stop-color="white"/>
</linearGradient>
<linearGradient id="paint41_linear_114_2" x1="1532.57" y1="-13.2669" x2="1532.57" y2="957.412" gradientUnits="userSpaceOnUse">
<stop stop-color="white"/>
</linearGradient>
<linearGradient id="paint42_linear_114_2" x1="1569.21" y1="-13.2669" x2="1569.21" y2="957.412" gradientUnits="userSpaceOnUse">
<stop stop-color="white"/>
</linearGradient>
<linearGradient id="paint43_linear_114_2" x1="-32.0142" y1="919.798" x2="1618.94" y2="919.798" gradientUnits="userSpaceOnUse">
<stop stop-color="white"/>
</linearGradient>
<linearGradient id="paint44_linear_114_2" x1="-32.0142" y1="882.444" x2="1618.94" y2="882.444" gradientUnits="userSpaceOnUse">
<stop stop-color="white"/>
</linearGradient>
<linearGradient id="paint45_linear_114_2" x1="-32.0142" y1="845.092" x2="1618.94" y2="845.092" gradientUnits="userSpaceOnUse">
<stop stop-color="white"/>
</linearGradient>
<linearGradient id="paint46_linear_114_2" x1="-32.0142" y1="807.739" x2="1618.94" y2="807.739" gradientUnits="userSpaceOnUse">
<stop stop-color="white"/>
</linearGradient>
<linearGradient id="paint47_linear_114_2" x1="-32.0142" y1="770.386" x2="1618.94" y2="770.386" gradientUnits="userSpaceOnUse">
<stop stop-color="white"/>
</linearGradient>
<linearGradient id="paint48_linear_114_2" x1="-32.0142" y1="733.033" x2="1618.94" y2="733.033" gradientUnits="userSpaceOnUse">
<stop stop-color="white"/>
</linearGradient>
<linearGradient id="paint49_linear_114_2" x1="-32.0142" y1="695.68" x2="1618.94" y2="695.68" gradientUnits="userSpaceOnUse">
<stop stop-color="white"/>
</linearGradient>
<linearGradient id="paint50_linear_114_2" x1="-32.0142" y1="658.327" x2="1618.94" y2="658.327" gradientUnits="userSpaceOnUse">
<stop stop-color="white"/>
</linearGradient>
<linearGradient id="paint51_linear_114_2" x1="-32.0142" y1="620.974" x2="1618.94" y2="620.974" gradientUnits="userSpaceOnUse">
<stop stop-color="white"/>
</linearGradient>
<linearGradient id="paint52_linear_114_2" x1="-32.0142" y1="583.621" x2="1618.94" y2="583.621" gradientUnits="userSpaceOnUse">
<stop stop-color="white"/>
</linearGradient>
<linearGradient id="paint53_linear_114_2" x1="-32.0142" y1="546.268" x2="1618.94" y2="546.268" gradientUnits="userSpaceOnUse">
<stop stop-color="white"/>
</linearGradient>
<linearGradient id="paint54_linear_114_2" x1="-32.0142" y1="508.915" x2="1618.94" y2="508.915" gradientUnits="userSpaceOnUse">
<stop stop-color="white"/>
</linearGradient>
<linearGradient id="paint55_linear_114_2" x1="-32.0142" y1="471.562" x2="1618.94" y2="471.562" gradientUnits="userSpaceOnUse">
<stop stop-color="white"/>
</linearGradient>
<linearGradient id="paint56_linear_114_2" x1="-32.0142" y1="434.209" x2="1618.94" y2="434.209" gradientUnits="userSpaceOnUse">
<stop stop-color="white"/>
</linearGradient>
<linearGradient id="paint57_linear_114_2" x1="-32.0142" y1="396.856" x2="1618.94" y2="396.856" gradientUnits="userSpaceOnUse">
<stop stop-color="white"/>
</linearGradient>
<linearGradient id="paint58_linear_114_2" x1="-32.0142" y1="359.503" x2="1618.94" y2="359.503" gradientUnits="userSpaceOnUse">
<stop stop-color="white"/>
</linearGradient>
<linearGradient id="paint59_linear_114_2" x1="-32.0142" y1="322.15" x2="1618.94" y2="322.15" gradientUnits="userSpaceOnUse">
<stop stop-color="white"/>
</linearGradient>
<linearGradient id="paint60_linear_114_2" x1="-32.0146" y1="284.797" x2="1618.94" y2="284.797" gradientUnits="userSpaceOnUse">
<stop stop-color="white"/>
</linearGradient>
<linearGradient id="paint61_linear_114_2" x1="-32.0146" y1="247.445" x2="1618.94" y2="247.444" gradientUnits="userSpaceOnUse">
<stop stop-color="white"/>
</linearGradient>
<linearGradient id="paint62_linear_114_2" x1="-32.0146" y1="210.091" x2="1618.94" y2="210.091" gradientUnits="userSpaceOnUse">
<stop stop-color="white"/>
</linearGradient>
<linearGradient id="paint63_linear_114_2" x1="-32.0146" y1="172.739" x2="1618.94" y2="172.738" gradientUnits="userSpaceOnUse">
<stop stop-color="white"/>
</linearGradient>
<linearGradient id="paint64_linear_114_2" x1="-32.0146" y1="135.386" x2="1618.94" y2="135.386" gradientUnits="userSpaceOnUse">
<stop stop-color="white"/>
</linearGradient>
<linearGradient id="paint65_linear_114_2" x1="-32.0146" y1="99.0288" x2="1618.94" y2="99.0287" gradientUnits="userSpaceOnUse">
<stop stop-color="white"/>
</linearGradient>
<linearGradient id="paint66_linear_114_2" x1="-32.0146" y1="60.6797" x2="1618.94" y2="60.6796" gradientUnits="userSpaceOnUse">
<stop stop-color="white"/>
</linearGradient>
<linearGradient id="paint67_linear_114_2" x1="-32.0146" y1="23.3266" x2="1618.94" y2="23.3265" gradientUnits="userSpaceOnUse">
<stop stop-color="white"/>
</linearGradient>
</defs>
</svg>
