<svg width="345" height="367" viewBox="0 0 345 367" fill="none" xmlns="http://www.w3.org/2000/svg">
<path d="M231.191 238.606C223.666 229.045 210.309 194.746 206.132 176C199.868 194.039 185.668 230.117 178.985 238.606C172.303 247.094 146.27 259.828 132 267.256C150.794 272.561 167.291 281.687 178.985 292.722C190.679 303.758 201.956 348.254 206.132 367C211.005 349.669 222.838 311.398 231.191 296.967C239.544 282.536 252.074 273.622 274 267.256C254.162 254.522 243.721 254.522 231.191 238.606Z" fill="white"/>
<path d="M319.074 156.022C314.516 150.216 306.426 129.385 303.897 118C300.103 128.956 291.503 150.867 287.456 156.022C283.409 161.178 267.642 168.911 259 173.422C270.382 176.644 280.374 182.187 287.456 188.889C294.538 195.591 301.368 222.615 303.897 234C306.848 223.474 314.015 200.231 319.074 191.467C324.132 182.702 331.721 177.289 345 173.422C332.985 165.689 326.662 165.689 319.074 156.022Z" fill="white"/>
<path d="M60.0735 38.0222C55.5158 32.2161 47.4265 11.3852 44.8971 0C41.1029 10.9556 32.5029 32.8667 28.4559 38.0222C24.4088 43.1778 8.64216 50.9111 0 55.4222C11.3824 58.6444 21.3735 64.1867 28.4559 70.8889C35.5382 77.5911 42.3676 104.615 44.8971 116C47.848 105.474 55.0147 82.2311 60.0735 73.4667C65.1324 64.7022 72.7206 59.2889 86 55.4222C73.9853 47.6889 67.6618 47.6889 60.0735 38.0222Z" fill="white"/>
</svg>
