<svg width="205" height="225" viewBox="0 0 205 225" fill="none" xmlns="http://www.w3.org/2000/svg">
<path d="M99.1912 96.6056C91.6656 87.0455 78.3088 52.7463 74.1324 34C67.8677 52.0389 53.6676 88.1167 46.9853 96.6056C40.3029 105.094 14.2696 117.828 0 125.256C18.7941 130.561 35.2912 139.687 46.9853 150.722C58.6794 161.758 69.9559 206.254 74.1324 225C79.0049 207.669 90.8382 169.398 99.1912 154.967C107.544 140.536 120.074 131.622 142 125.256C122.162 112.522 111.721 112.522 99.1912 96.6056Z" fill="white"/>
<path d="M179.074 38.0222C174.516 32.2161 166.426 11.3852 163.897 0C160.103 10.9556 151.503 32.8667 147.456 38.0222C143.409 43.1778 127.642 50.9111 119 55.4222C130.382 58.6444 140.374 64.1867 147.456 70.8889C154.538 77.5911 161.368 104.615 163.897 116C166.848 105.474 174.015 82.2311 179.074 73.4667C184.132 64.7022 191.721 59.2889 205 55.4222C192.985 47.6889 186.662 47.6889 179.074 38.0222Z" fill="white"/>
</svg>
