<svg width="185" height="266" viewBox="0 0 185 266" fill="none" xmlns="http://www.w3.org/2000/svg">
<path d="M142.191 137.606C134.666 128.045 121.309 93.7463 117.132 75C110.868 93.0389 96.6676 129.117 89.9853 137.606C83.3029 146.094 57.2696 158.828 43 166.256C61.7941 171.561 78.2912 180.687 89.9853 191.722C101.679 202.758 112.956 247.254 117.132 266C122.005 248.669 133.838 210.398 142.191 195.967C150.544 181.536 163.074 172.622 185 166.256C165.162 153.522 154.721 153.522 142.191 137.606Z" fill="white"/>
<path d="M60.0735 38.0222C55.5158 32.2161 47.4265 11.3852 44.8971 0C41.1029 10.9556 32.5029 32.8667 28.4559 38.0222C24.4088 43.1778 8.64216 50.9111 0 55.4222C11.3824 58.6444 21.3735 64.1867 28.4559 70.8889C35.5382 77.5911 42.3676 104.615 44.8971 116C47.848 105.474 55.0147 82.2311 60.0735 73.4667C65.1324 64.7022 72.7206 59.2889 86 55.4222C73.9853 47.6889 67.6618 47.6889 60.0735 38.0222Z" fill="white"/>
</svg>
