<svg width="270" height="269" viewBox="0 0 270 269" fill="none" xmlns="http://www.w3.org/2000/svg">
<path d="M207.167 56.5744C203.609 53.4958 199.453 52.4357 196.663 51.9935C193.645 51.5151 190.502 51.5031 187.59 51.6765C181.745 52.0246 175.044 53.2419 168.533 54.7445C158.422 57.0778 147.622 60.3726 138.997 63.2971C129.362 55.7622 118.741 49.2601 108.673 44.8448C102.591 42.1775 96.327 40.1021 90.3396 39.1583C84.5624 38.2476 77.6971 38.1769 71.4157 41.0402C66.8109 43.1393 64.0347 46.7582 62.4163 49.6028C60.7583 52.5172 59.6909 55.7044 58.9543 58.6254C57.4782 64.479 56.8137 71.4008 56.5488 78.1011C56.1312 88.6646 56.6581 100.237 57.4241 109.51C50.9079 114.822 43.0927 121.711 36.315 128.782C31.8792 133.41 27.5469 138.465 24.319 143.466C21.4983 147.835 17.7747 154.742 18.5079 162.32C19.4477 172.034 27.3542 177.567 31.7629 180.139C37.0959 183.251 43.6852 185.66 50.0682 187.542C59.5189 190.328 70.0667 192.4 78.9081 193.76C81.2365 202.311 84.3865 212.51 87.9802 221.671C90.4193 227.888 93.2625 234.149 96.4441 239.187C98.0312 241.7 99.9592 244.324 102.278 246.546C104.491 248.667 107.993 251.319 112.763 252.186C117.484 253.043 121.673 251.826 124.464 250.672C127.41 249.453 130.166 247.731 132.587 245.976C137.441 242.459 142.47 237.688 147.129 232.793C154.626 224.915 162.114 215.702 167.782 208.222C175.828 208.038 185.857 207.522 195.173 206.456C201.185 205.768 207.282 204.809 212.488 203.44C215.089 202.755 217.774 201.89 220.245 200.755C222.538 199.701 225.651 197.968 228.154 195.076C231.773 190.894 232.408 185.995 232.459 182.968C232.513 179.73 231.937 176.506 231.234 173.701C229.814 168.038 227.246 161.668 224.433 155.591C219.695 145.352 213.536 134.4 208.5 126.095C210.512 117.051 212.73 105.277 213.926 94.402C214.645 87.8693 215.054 81.1535 214.68 75.3624C214.494 72.4771 214.087 69.3611 213.208 66.4155C212.389 63.6682 210.756 59.6801 207.167 56.5744Z" fill="#FFC270" stroke="white" stroke-width="26"/>
<path d="M203.568 60.7334C201.132 58.6251 198.152 57.7981 195.802 57.4257C193.321 57.0324 190.61 57.0064 187.917 57.1668C182.517 57.4883 176.158 58.6293 169.77 60.1036C158.741 62.6488 146.809 66.3823 137.928 69.4806C128.019 61.4124 116.875 54.4476 106.464 49.8818C100.661 47.3369 94.8645 45.4395 89.4832 44.5912C84.2232 43.762 78.5913 43.8138 73.697 46.0448C70.5322 47.4874 68.4975 50.0363 67.1968 52.3225C65.8732 54.649 64.9565 57.317 64.2874 59.9703C62.9476 65.2834 62.3035 71.7682 62.0445 78.3184C61.5933 89.7301 62.2766 102.438 63.1591 111.953C56.3899 117.34 47.6769 124.877 40.2855 132.588C35.9645 137.096 31.8985 141.865 28.9397 146.449C26.2159 150.668 23.4412 156.197 23.9823 161.79C24.6427 168.615 30.2957 172.916 34.5347 175.389C39.3069 178.173 45.4077 180.434 51.6236 182.267C62.0774 185.349 74.0087 187.549 83.2911 188.844C85.6346 197.859 89.0963 209.455 93.1003 219.662C95.4877 225.748 98.1831 231.64 101.095 236.251C102.548 238.552 104.204 240.774 106.083 242.575C107.902 244.317 110.462 246.178 113.746 246.774C117.001 247.365 120.048 246.546 122.362 245.589C124.766 244.595 127.134 243.136 129.36 241.523C133.819 238.292 138.581 233.797 143.145 229.001C151.191 220.546 159.276 210.457 164.996 202.773C173.284 202.653 184.378 202.156 194.547 200.992C200.442 200.317 206.246 199.395 211.089 198.121C213.509 197.484 215.866 196.714 217.949 195.757C219.929 194.847 222.233 193.514 223.995 191.477C226.401 188.696 226.918 185.319 226.959 182.875C227.003 180.31 226.543 177.607 225.899 175.038C224.603 169.87 222.202 163.864 219.442 157.901C214.446 147.105 207.792 135.421 202.643 127.058C204.743 117.928 207.193 105.311 208.459 93.8006C209.164 87.3976 209.536 81.0445 209.191 75.7171C209.02 73.0594 208.655 70.3917 207.938 67.9875C207.255 65.6978 206.023 62.8573 203.568 60.7334Z" fill="#FFD26B" stroke="#FF6865" stroke-width="15"/>
<path d="M203.568 60.7334C201.132 58.6251 198.152 57.7981 195.802 57.4257C193.321 57.0324 190.61 57.0064 187.917 57.1668C182.517 57.4883 176.158 58.6293 169.77 60.1036C158.741 62.6488 146.809 66.3823 137.928 69.4806C128.019 61.4124 116.875 54.4476 106.464 49.8818C100.661 47.3369 94.8645 45.4395 89.4832 44.5912C84.2232 43.762 78.5913 43.8138 73.697 46.0448C70.5322 47.4874 68.4975 50.0363 67.1968 52.3225C65.8732 54.649 64.9565 57.317 64.2874 59.9703C62.9476 65.2834 62.3035 71.7682 62.0445 78.3184C61.5933 89.7301 62.2766 102.438 63.1591 111.953C56.3899 117.34 47.6769 124.877 40.2855 132.588C35.9645 137.096 31.8985 141.865 28.9397 146.449C26.2159 150.668 23.4412 156.197 23.9823 161.79C24.6427 168.615 30.2957 172.916 34.5347 175.389C39.3069 178.173 45.4077 180.434 51.6236 182.267C62.0774 185.349 74.0087 187.549 83.2911 188.844C85.6346 197.859 89.0963 209.455 93.1003 219.662C95.4877 225.748 98.1831 231.64 101.095 236.251C102.548 238.552 104.204 240.774 106.083 242.575C107.902 244.317 110.462 246.178 113.746 246.774C117.001 247.365 120.048 246.546 122.362 245.589C124.766 244.595 127.134 243.136 129.36 241.523C133.819 238.292 138.581 233.797 143.145 229.001C151.191 220.546 159.276 210.457 164.996 202.773C173.284 202.653 184.378 202.156 194.547 200.992C200.442 200.317 206.246 199.395 211.089 198.121C213.509 197.484 215.866 196.714 217.949 195.757C219.929 194.847 222.233 193.514 223.995 191.477C226.401 188.696 226.918 185.319 226.959 182.875C227.003 180.31 226.543 177.607 225.899 175.038C224.603 169.87 222.202 163.864 219.442 157.901C214.446 147.105 207.792 135.421 202.643 127.058C204.743 117.928 207.193 105.311 208.459 93.8006C209.164 87.3976 209.536 81.0445 209.191 75.7171C209.02 73.0594 208.655 70.3917 207.938 67.9875C207.255 65.6978 206.023 62.8573 203.568 60.7334Z" fill="#FFD26B" stroke="#FF6865" stroke-width="15"/>
<path d="M142.203 89.6219C146.173 87.3266 159.28 81.6541 179.953 77.326" stroke="#FFEEC5" stroke-width="12" stroke-linecap="round"/>
<path d="M89.4071 62.7606C93.7957 64.0902 106.895 69.783 124.182 81.9172" stroke="#FFEEC5" stroke-width="12" stroke-linecap="round"/>
</svg>
