<svg width="312" height="314" viewBox="0 0 312 314" fill="none" xmlns="http://www.w3.org/2000/svg">
<path d="M158.911 153.274C127.723 105.259 172.644 51.4512 227.457 45.7071C228.303 45.6184 228.694 44.6088 228.061 44.0391C202.971 21.4534 123.36 4.22018 66.6244 54.9696C11.419 104.35 12.6551 172.712 38.7258 221.713C64.7965 270.713 139.423 313.989 214.087 280.822C272.71 254.782 295.147 193.048 289.14 135.188C289.038 134.204 287.697 134.002 287.232 134.875C251.344 202.234 185.264 193.845 158.911 153.274Z" fill="#FFD26B" stroke="white" stroke-width="42" stroke-linecap="round"/>
<path d="M158.911 153.274C127.723 105.259 172.644 51.4512 227.457 45.7071C228.303 45.6184 228.694 44.6088 228.061 44.0391C202.971 21.4534 123.36 4.22018 66.6244 54.9696C11.419 104.35 12.6551 172.712 38.7258 221.713C64.7965 270.713 139.423 313.989 214.087 280.822C272.71 254.782 295.147 193.048 289.14 135.188C289.038 134.204 287.697 134.002 287.232 134.875C251.344 202.234 185.264 193.845 158.911 153.274Z" fill="#FFD26B" stroke="#FF6765" stroke-width="15" stroke-linecap="round"/>
<path d="M81.4271 68.8432C62.8623 80.0947 35.0476 128.477 43.4102 165.828M49.1901 191.762C50.9959 198.711 56.2689 213.023 62.4102 218.641M133.012 269.941C166.245 274.16 204.522 274.382 241.355 238.334" stroke="#FFEEC5" stroke-width="16" stroke-linecap="round"/>
</svg>
