<svg width="1440" height="1154" viewBox="0 0 1440 1154" fill="none" xmlns="http://www.w3.org/2000/svg">
<g filter="url(#filter0_d_14_54)">
<path d="M1195.88 553.875C1195.88 553.875 1148.17 355.459 1304.5 253.714C1413.5 182.771 1521 225.714 1561.78 253.714V1147.5H435.064H367C367 1075.5 543.747 1100.47 543.747 1100.47C543.747 1100.47 512.772 882.741 738.791 882.741C651.5 835.214 732 713.714 813.808 771.496C813.808 771.496 769.5 620.724 918.5 527.214C1067.5 433.704 1195.88 553.875 1195.88 553.875Z" fill="#FFDADA"/>
<path d="M1180.54 528.053C1180.26 527.861 1179.98 527.668 1179.69 527.474C1164.77 517.29 1143.25 504.702 1116.81 495.134C1063.7 475.917 990.671 468.933 912.653 517.897C835.059 566.593 807.363 630.695 799.405 682.759C795.45 708.636 796.375 731.42 798.287 747.756C798.411 748.812 798.539 749.841 798.67 750.844C782.904 744.728 767.279 743.824 752.868 747.09C732.154 751.783 714.859 764.878 703.741 781.516C692.629 798.146 687.294 818.925 691.398 839.35C693.825 851.429 699.468 862.953 708.581 873.091C665.346 877.102 632.06 889.793 606.615 907.779C575.559 929.729 557.065 958.939 546.218 987.728C535.403 1016.43 532.095 1044.94 531.444 1066.11C531.18 1074.71 531.351 1082.16 531.652 1088C527.493 1087.58 522.52 1087.14 516.935 1086.73C500.089 1085.49 477.458 1084.59 454.689 1086.01C432.151 1087.41 408.401 1091.15 389.94 1099.82C371.126 1108.66 356 1123.7 356 1147.5V1158.5H367H435.064H1561.78H1572.78V1147.5V253.714V247.923L1568.01 244.645C1525.2 215.253 1412.66 170.195 1298.5 244.495C1216.75 297.701 1188.51 376.251 1180.65 440.615C1176.72 472.779 1177.83 501.604 1179.92 522.383C1180.12 524.345 1180.33 526.236 1180.54 528.053Z" stroke="white" stroke-width="22"/>
</g>
<g filter="url(#filter1_d_14_54)">
<path d="M233.401 540.575C234.499 519.104 233.401 389.016 112 287.516C32.2383 220.83 -174 228.016 -250 434.016V1144.46H876.716L944.78 1119.57C944.78 972.101 768.033 1019.67 768.033 1019.67C768.033 1019.67 773.5 765.5 572.99 801.941C581.271 762.666 540.055 641.208 471.991 583.39C403.927 525.572 292.683 524.84 233.401 540.575Z" fill="#FFDADA"/>
<path d="M778.778 1006.08C783.113 1005.27 788.338 1004.4 794.231 1003.64C811.361 1001.41 834.556 999.966 858.018 1003.44C881.434 1006.91 906.053 1015.41 924.872 1033.9C943.943 1052.64 955.78 1080.36 955.78 1119.57V1127.26L948.557 1129.9L880.493 1154.79L878.664 1155.46H876.716H-250H-261V1144.46V434.016V432.052L-260.32 430.209C-221.088 323.868 -147.753 268.032 -73.2825 247.89C0.46521 227.945 75.8741 242.974 119.056 279.077C227.923 370.098 243.116 483.515 244.452 526.735C274.089 520.806 312.059 518.667 350.762 523.485C395.78 529.088 442.905 544.25 479.113 575.006C514.956 605.454 543.125 651.998 561.268 695.375C570.383 717.167 577.111 738.499 581.036 757.08C583.459 768.548 584.92 779.451 585.034 788.979C630.772 783.365 666.565 792.793 694.214 811.473C724.342 831.829 743.577 862.342 755.91 893.041C768.257 923.777 774.001 955.47 776.685 979.296C777.89 989.986 778.487 999.17 778.778 1006.08Z" stroke="white" stroke-width="22"/>
</g>
<g filter="url(#filter2_d_14_54)">
<path d="M123.226 566.176C-75.1283 495.409 -187.454 616.431 -231 666.077V1153.87H735.071C749.708 1126.06 789.961 1044.82 719.701 963.217C675.993 912.452 587.477 921.24 560.885 943.075C574.181 886.111 541.889 825.96 486.234 795.252C404.631 750.226 339.372 786.348 309.121 822.698C309.121 741.856 263.745 616.31 123.226 566.176Z" fill="#FFF9DD"/>
<path d="M-242 666.077V661.936L-239.27 658.823C-217.32 633.799 -177.117 589.664 -116.648 561.03C-55.7753 532.206 24.915 519.423 126.922 555.816C259.039 602.951 310.242 714.36 318.794 797.5C333.907 784.791 353.102 773.727 375.63 767.819C408.763 759.129 448.372 761.798 491.548 785.621C543.582 814.331 577.461 867.975 574.728 923.255C578.986 921.681 583.501 920.322 588.167 919.185C601.932 915.829 617.904 914.176 634.379 914.933C667.1 916.435 703.533 927.578 728.037 956.04C803.241 1043.39 759.616 1130.85 744.805 1158.99L741.712 1164.87H735.071H-231H-242V1153.87V666.077Z" stroke="white" stroke-width="22"/>
</g>
<g filter="url(#filter3_d_14_54)">
<path d="M1258.93 587.676C1375.15 506.292 1491.3 585.236 1534.85 634.881V1154.14H568.775C554.138 1126.33 538.695 1061.27 594.025 1023.51C649.354 985.741 716.369 1019.97 742.961 1041.8C729.665 984.838 731.397 860.005 844.691 816.386C957.984 772.766 1046.81 834.561 1077.06 870.91C1075.96 851.516 1081.09 823.966 1110.36 813.824C1156.83 797.723 1180.13 839.318 1186.11 848.954C1161.96 795.771 1142.71 669.06 1258.93 587.676Z" fill="#FFF9DD"/>
<path d="M1545.85 634.881V630.741L1543.12 627.628C1520.32 601.636 1478.79 568.17 1427.51 551.671C1375.76 535.02 1313.98 535.697 1252.62 578.665C1191.77 621.277 1166.06 676.152 1158.98 727.386C1155.01 756.159 1156.91 783.728 1161.63 807.356C1147.58 799.402 1129.21 795.652 1106.76 803.43C1082.97 811.671 1072.4 829.225 1068.26 846.257C1026.37 809.064 943.004 766.747 840.738 806.12C780.291 829.393 749.505 874.596 735.805 920.974C725.696 955.197 724.795 990.231 727.879 1018.25C714.888 1010.79 699.09 1003.8 681.869 999.616C652.83 992.553 618.794 993.281 587.823 1014.42C556.858 1035.55 545.544 1064.7 544.176 1092.01C542.832 1118.83 551.005 1144 559.041 1159.27L562.134 1165.14H568.775H1534.85H1545.85V1154.14V634.881Z" stroke="white" stroke-width="22"/>
</g>
<defs>
<filter id="filter0_d_14_54" x="244" y="0.966553" width="1438.78" height="1176.53" filterUnits="userSpaceOnUse" color-interpolation-filters="sRGB">
<feFlood flood-opacity="0" result="BackgroundImageFix"/>
<feColorMatrix in="SourceAlpha" type="matrix" values="0 0 0 0 0 0 0 0 0 0 0 0 0 0 0 0 0 0 127 0" result="hardAlpha"/>
<feOffset dx="-1" dy="-92"/>
<feGaussianBlur stdDeviation="50"/>
<feComposite in2="hardAlpha" operator="out"/>
<feColorMatrix type="matrix" values="0 0 0 0 0 0 0 0 0 0 0 0 0 0 0 0 0 0 0.1 0"/>
<feBlend mode="normal" in2="BackgroundImageFix" result="effect1_dropShadow_14_54"/>
<feBlend mode="normal" in="SourceGraphic" in2="effect1_dropShadow_14_54" result="shape"/>
</filter>
<filter id="filter1_d_14_54" x="-276" y="228.012" width="1246.78" height="946.445" filterUnits="userSpaceOnUse" color-interpolation-filters="sRGB">
<feFlood flood-opacity="0" result="BackgroundImageFix"/>
<feColorMatrix in="SourceAlpha" type="matrix" values="0 0 0 0 0 0 0 0 0 0 0 0 0 0 0 0 0 0 127 0" result="hardAlpha"/>
<feOffset dy="4"/>
<feGaussianBlur stdDeviation="2"/>
<feComposite in2="hardAlpha" operator="out"/>
<feColorMatrix type="matrix" values="0 0 0 0 0 0 0 0 0 0 0 0 0 0 0 0 0 0 0.1 0"/>
<feBlend mode="normal" in2="BackgroundImageFix" result="effect1_dropShadow_14_54"/>
<feBlend mode="normal" in="SourceGraphic" in2="effect1_dropShadow_14_54" result="shape"/>
</filter>
<filter id="filter2_d_14_54" x="-317.1" y="393.411" width="1233.09" height="851.559" filterUnits="userSpaceOnUse" color-interpolation-filters="sRGB">
<feFlood flood-opacity="0" result="BackgroundImageFix"/>
<feColorMatrix in="SourceAlpha" type="matrix" values="0 0 0 0 0 0 0 0 0 0 0 0 0 0 0 0 0 0 127 0" result="hardAlpha"/>
<feOffset dx="35" dy="-30"/>
<feGaussianBlur stdDeviation="49.55"/>
<feComposite in2="hardAlpha" operator="out"/>
<feColorMatrix type="matrix" values="0 0 0 0 0.411068 0 0 0 0 0.411068 0 0 0 0 0.411068 0 0 0 0.18 0"/>
<feBlend mode="normal" in2="BackgroundImageFix" result="effect1_dropShadow_14_54"/>
<feBlend mode="normal" in="SourceGraphic" in2="effect1_dropShadow_14_54" result="shape"/>
</filter>
<filter id="filter3_d_14_54" x="416.33" y="449.868" width="1227.22" height="848.977" filterUnits="userSpaceOnUse" color-interpolation-filters="sRGB">
<feFlood flood-opacity="0" result="BackgroundImageFix"/>
<feColorMatrix in="SourceAlpha" type="matrix" values="0 0 0 0 0 0 0 0 0 0 0 0 0 0 0 0 0 0 127 0" result="hardAlpha"/>
<feOffset dx="-15" dy="21"/>
<feGaussianBlur stdDeviation="50.85"/>
<feComposite in2="hardAlpha" operator="out"/>
<feColorMatrix type="matrix" values="0 0 0 0 0.411068 0 0 0 0 0.411068 0 0 0 0 0.411068 0 0 0 0.25 0"/>
<feBlend mode="normal" in2="BackgroundImageFix" result="effect1_dropShadow_14_54"/>
<feBlend mode="normal" in="SourceGraphic" in2="effect1_dropShadow_14_54" result="shape"/>
</filter>
</defs>
</svg>
