<svg width="824" height="1135" viewBox="0 0 824 1135" fill="none" xmlns="http://www.w3.org/2000/svg">
<g filter="url(#filter0_d_13_3)">
<rect x="7" y="7" width="767" height="1078" rx="19" fill="#E7FFF8"/>
<rect x="3.5" y="3.5" width="774" height="1085" rx="22.5" stroke="#2CA49C" stroke-width="7"/>
</g>
<path d="M774 98.5H777.5V95V26C777.5 13.5736 767.426 3.5 755 3.5H26C13.5736 3.5 3.5 13.5736 3.5 26V95V98.5H7H774Z" fill="#7CF0CD" stroke="#2CA49C" stroke-width="7"/>
<g filter="url(#filter1_d_13_3)">
<path d="M89.824 43.72C91.2747 43.592 92.4053 43.656 93.216 43.912C94.0693 44.1253 94.688 44.424 95.072 44.808C95.4987 45.192 95.7547 45.5547 95.84 45.896C95.968 46.1947 96.032 46.344 96.032 46.344L99.296 58.248L100.896 53.576C100.896 53.576 101.024 53.32 101.28 52.808C101.579 52.296 102.112 51.784 102.88 51.272C103.648 50.76 104.757 50.5253 106.208 50.568C107.701 50.568 108.789 50.8027 109.472 51.272C110.197 51.7413 110.667 52.2107 110.88 52.68C111.136 53.1493 111.264 53.384 111.264 53.384L112.928 58.12C112.928 58.12 113.035 57.736 113.248 56.968C113.504 56.1573 113.824 55.1547 114.208 53.96C114.592 52.7227 114.976 51.4853 115.36 50.248C115.744 49.0107 116.064 47.9227 116.32 46.984C116.619 46.0027 116.811 45.384 116.896 45.128C117.024 44.7013 117.259 44.2747 117.6 43.848C117.941 43.4213 118.539 43.08 119.392 42.824C120.288 42.5253 121.589 42.44 123.296 42.568C124.576 42.6533 125.515 42.8667 126.112 43.208C126.709 43.5493 127.093 43.9333 127.264 44.36C127.435 44.7867 127.499 45.1493 127.456 45.448C127.413 45.7467 127.392 45.896 127.392 45.896C127.392 45.896 127.221 46.344 126.88 47.24C126.581 48.136 126.176 49.288 125.664 50.696C125.152 52.104 124.597 53.6187 124 55.24C123.445 56.8613 122.891 58.4187 122.336 59.912C121.824 61.4053 121.376 62.6853 120.992 63.752C120.608 64.776 120.373 65.3947 120.288 65.608C120.117 66.0347 119.84 66.5253 119.456 67.08C119.115 67.592 118.581 68.04 117.856 68.424C117.173 68.808 116.171 69 114.848 69C113.568 69 112.523 68.8507 111.712 68.552C110.944 68.2533 110.368 67.9547 109.984 67.656C109.643 67.3573 109.472 67.208 109.472 67.208L105.888 61.832L102.88 66.568C102.88 66.568 102.752 66.7813 102.496 67.208C102.24 67.592 101.707 67.9973 100.896 68.424C100.085 68.808 98.8267 69 97.12 69C95.84 69 94.8373 68.808 94.112 68.424C93.3867 68.04 92.832 67.6133 92.448 67.144C92.1067 66.6747 91.872 66.248 91.744 65.864C91.6587 65.48 91.616 65.288 91.616 65.288C91.616 65.288 91.4667 64.8187 91.168 63.88C90.8693 62.9413 90.464 61.7467 89.952 60.296C89.4827 58.8453 88.9707 57.3307 88.416 55.752C87.904 54.1307 87.392 52.616 86.88 51.208C86.4107 49.8 86.0267 48.6907 85.728 47.88C85.344 46.8987 85.28 46.1307 85.536 45.576C85.8347 45.0213 86.2613 44.616 86.816 44.36C87.3707 44.104 87.9467 43.9547 88.544 43.912C89.1413 43.8267 89.568 43.7627 89.824 43.72ZM131.114 63.496L130.346 31.88C130.346 31.88 130.346 31.7093 130.346 31.368C130.388 31.0267 130.538 30.6213 130.794 30.152C131.05 29.6827 131.498 29.2773 132.138 28.936C132.82 28.5947 133.802 28.424 135.082 28.424C136.788 28.424 138.047 28.616 138.858 29C139.711 29.384 140.266 29.8747 140.522 30.472C140.778 31.0693 140.884 31.6667 140.842 32.264C140.799 32.6907 140.778 33.5013 140.778 34.696C140.82 35.848 140.842 37.0853 140.842 38.408C140.884 39.688 140.906 40.7973 140.906 41.736C140.948 42.6747 140.97 43.144 140.97 43.144C140.97 43.144 141.396 43.0373 142.25 42.824C143.146 42.6107 144.298 42.4613 145.706 42.376C147.114 42.2907 148.607 42.4613 150.186 42.888C151.764 43.272 153.258 44.0827 154.666 45.32C155.178 45.7467 155.583 46.536 155.882 47.688C156.223 48.84 156.479 50.184 156.65 51.72C156.863 53.2133 157.012 54.7707 157.098 56.392C157.183 57.9707 157.226 59.4427 157.226 60.808C157.268 62.1733 157.268 63.2827 157.226 64.136C157.226 64.9893 157.226 65.416 157.226 65.416C157.226 65.416 157.226 65.608 157.226 65.992C157.226 66.3333 157.119 66.7387 156.906 67.208C156.735 67.6773 156.351 68.104 155.754 68.488C155.156 68.8293 154.239 69 153.002 69C151.38 69 150.271 68.808 149.674 68.424C149.076 68.04 148.756 67.528 148.714 66.888C148.671 66.2053 148.65 65.4587 148.65 64.648C148.65 64.1787 148.628 63.4107 148.586 62.344C148.543 61.2773 148.5 60.104 148.458 58.824C148.415 57.5013 148.372 56.2427 148.33 55.048C148.287 53.8533 148.244 52.872 148.202 52.104C148.159 51.336 148.138 50.952 148.138 50.952C148.138 50.952 148.095 50.696 148.01 50.184C147.967 49.6293 147.754 49.096 147.37 48.584C146.986 48.072 146.346 47.8373 145.45 47.88C144.767 47.9227 144.191 48.2427 143.722 48.84C143.252 49.3947 142.868 50.0987 142.57 50.952C142.314 51.7627 142.122 52.552 141.994 53.32C141.866 54.0453 141.802 54.5787 141.802 54.92C141.802 55.2613 141.802 55.944 141.802 56.968C141.844 57.992 141.866 59.1013 141.866 60.296C141.866 61.448 141.866 62.4507 141.866 63.304C141.908 64.1147 141.93 64.52 141.93 64.52C141.93 64.52 141.908 64.7547 141.866 65.224C141.823 65.6507 141.652 66.1627 141.354 66.76C141.055 67.3573 140.522 67.8907 139.754 68.36C139.028 68.7867 137.962 69 136.554 69C134.932 69 133.716 68.7227 132.906 68.168C132.138 67.6133 131.626 66.9733 131.37 66.248C131.156 65.5227 131.049 64.8827 131.049 64.328C131.092 63.7733 131.114 63.496 131.114 63.496ZM186.638 49.672C186.51 51.8053 185.912 53.5333 184.846 54.856C183.779 56.136 182.478 57.1173 180.942 57.8C179.448 58.44 177.955 58.888 176.462 59.144C174.968 59.3573 173.71 59.464 172.686 59.464C171.704 59.464 171.214 59.464 171.214 59.464C171.47 60.9573 171.832 62.024 172.302 62.664C172.771 63.304 173.283 63.6667 173.838 63.752C174.435 63.8373 174.99 63.7947 175.502 63.624C176.014 63.4107 176.419 63.176 176.718 62.92C177.059 62.664 177.23 62.536 177.23 62.536C177.23 62.536 177.464 62.344 177.934 61.96C178.403 61.576 179.128 61.2133 180.11 60.872C181.134 60.488 182.414 60.296 183.95 60.296C185.699 60.296 186.872 60.5307 187.47 61C188.11 61.4267 188.408 61.9387 188.366 62.536C188.366 63.0907 188.238 63.6027 187.982 64.072C187.768 64.4987 187.662 64.712 187.662 64.712C187.662 64.712 187.47 64.9253 187.086 65.352C186.744 65.736 186.104 66.2053 185.166 66.76C184.227 67.3147 182.926 67.8267 181.262 68.296C179.598 68.7227 177.464 68.9573 174.862 69C172.344 69.0427 170.232 68.7013 168.526 67.976C166.819 67.2507 165.411 66.312 164.302 65.16C163.192 63.9653 162.339 62.728 161.742 61.448C161.187 60.1253 160.782 58.9093 160.526 57.8C160.312 56.648 160.206 55.752 160.206 55.112C160.206 54.472 160.248 53.64 160.334 52.616C160.462 51.592 160.739 50.5253 161.166 49.416C161.635 48.264 162.339 47.176 163.278 46.152C164.216 45.128 165.496 44.296 167.118 43.656C168.782 43.016 170.894 42.6747 173.454 42.632C176.654 42.5893 179.15 42.8667 180.942 43.464C182.734 44.0613 184.035 44.7867 184.846 45.64C185.656 46.4933 186.147 47.304 186.318 48.072C186.531 48.84 186.638 49.3733 186.638 49.672ZM170.318 55.048C172.92 54.8347 174.862 54.28 176.142 53.384C177.422 52.488 178.168 51.4853 178.382 50.376C178.595 49.2667 178.382 48.328 177.742 47.56C177.144 46.7493 176.227 46.3867 174.99 46.472C173.752 46.5147 172.814 46.984 172.174 47.88C171.534 48.7333 171.086 49.736 170.83 50.888C170.574 51.9973 170.424 52.9787 170.382 53.832C170.339 54.6427 170.318 55.048 170.318 55.048ZM194.41 64.648C194.41 64.1787 194.346 63.368 194.218 62.216C194.09 61.064 193.919 59.7627 193.706 58.312C193.535 56.8187 193.343 55.3467 193.13 53.896C192.917 52.4027 192.682 51.08 192.426 49.928C192.213 48.7333 192.021 47.88 191.85 47.368C191.423 46.088 191.658 45.192 192.554 44.68C193.493 44.1253 194.794 43.7627 196.458 43.592C198.122 43.4213 199.317 43.5493 200.042 43.976C200.81 44.36 201.194 44.552 201.194 44.552C201.834 43.912 202.879 43.464 204.33 43.208C205.823 42.952 207.381 42.8453 209.002 42.888C211.093 42.9307 212.607 43.2507 213.546 43.848C214.485 44.4453 214.954 45.0853 214.954 45.768C214.954 46.28 214.89 46.664 214.762 46.92C214.634 47.176 214.122 47.432 213.226 47.688C212.373 47.9013 210.815 48.2853 208.554 48.84C207.231 49.1387 206.25 49.864 205.61 51.016C204.97 52.1253 204.565 53.4267 204.394 54.92C204.266 56.3707 204.266 57.8213 204.394 59.272C204.522 60.68 204.671 61.8747 204.842 62.856C205.013 63.7947 205.098 64.3067 205.098 64.392C205.098 64.4773 205.119 64.776 205.162 65.288C205.247 65.7573 205.183 66.2907 204.97 66.888C204.799 67.4427 204.351 67.9333 203.626 68.36C202.901 68.7867 201.749 69 200.17 69C198.591 69 197.397 68.7867 196.586 68.36C195.775 67.8907 195.221 67.3787 194.922 66.824C194.623 66.2693 194.453 65.7787 194.41 65.352C194.41 64.8827 194.41 64.648 194.41 64.648ZM243.575 49.672C243.447 51.8053 242.85 53.5333 241.783 54.856C240.716 56.136 239.415 57.1173 237.879 57.8C236.386 58.44 234.892 58.888 233.399 59.144C231.906 59.3573 230.647 59.464 229.623 59.464C228.642 59.464 228.151 59.464 228.151 59.464C228.407 60.9573 228.77 62.024 229.239 62.664C229.708 63.304 230.22 63.6667 230.775 63.752C231.372 63.8373 231.927 63.7947 232.439 63.624C232.951 63.4107 233.356 63.176 233.655 62.92C233.996 62.664 234.167 62.536 234.167 62.536C234.167 62.536 234.402 62.344 234.871 61.96C235.34 61.576 236.066 61.2133 237.047 60.872C238.071 60.488 239.351 60.296 240.887 60.296C242.636 60.296 243.81 60.5307 244.407 61C245.047 61.4267 245.346 61.9387 245.303 62.536C245.303 63.0907 245.175 63.6027 244.919 64.072C244.706 64.4987 244.599 64.712 244.599 64.712C244.599 64.712 244.407 64.9253 244.023 65.352C243.682 65.736 243.042 66.2053 242.103 66.76C241.164 67.3147 239.863 67.8267 238.199 68.296C236.535 68.7227 234.402 68.9573 231.799 69C229.282 69.0427 227.17 68.7013 225.463 67.976C223.756 67.2507 222.348 66.312 221.239 65.16C220.13 63.9653 219.276 62.728 218.679 61.448C218.124 60.1253 217.719 58.9093 217.463 57.8C217.25 56.648 217.143 55.752 217.143 55.112C217.143 54.472 217.186 53.64 217.271 52.616C217.399 51.592 217.676 50.5253 218.103 49.416C218.572 48.264 219.276 47.176 220.215 46.152C221.154 45.128 222.434 44.296 224.055 43.656C225.719 43.016 227.831 42.6747 230.391 42.632C233.591 42.5893 236.087 42.8667 237.879 43.464C239.671 44.0613 240.972 44.7867 241.783 45.64C242.594 46.4933 243.084 47.304 243.255 48.072C243.468 48.84 243.575 49.3733 243.575 49.672ZM227.255 55.048C229.858 54.8347 231.799 54.28 233.079 53.384C234.359 52.488 235.106 51.4853 235.319 50.376C235.532 49.2667 235.319 48.328 234.679 47.56C234.082 46.7493 233.164 46.3867 231.927 46.472C230.69 46.5147 229.751 46.984 229.111 47.88C228.471 48.7333 228.023 49.736 227.767 50.888C227.511 51.9973 227.362 52.9787 227.319 53.832C227.276 54.6427 227.255 55.048 227.255 55.048ZM265.349 34.056C265.306 32.9893 265.626 32.136 266.309 31.496C266.991 30.8133 268.506 30.408 270.853 30.28C272.431 30.1947 273.583 30.3867 274.309 30.856C275.034 31.3253 275.482 31.816 275.653 32.328C275.866 32.7973 275.973 33.032 275.973 33.032L276.357 38.728C276.357 38.728 276.698 38.728 277.381 38.728C278.106 38.728 278.917 38.8133 279.812 38.984C280.751 39.112 281.562 39.3893 282.245 39.816C282.97 40.2427 283.333 40.904 283.333 41.8C283.333 42.696 282.991 43.3573 282.309 43.784C281.626 44.2107 280.837 44.5093 279.941 44.68C279.045 44.808 278.234 44.872 277.509 44.872C276.826 44.872 276.485 44.872 276.485 44.872C276.485 44.872 276.485 45.3627 276.485 46.344C276.527 47.2827 276.549 48.52 276.549 50.056C276.549 51.5493 276.57 53.1493 276.613 54.856C276.655 56.5627 276.677 58.2053 276.677 59.784C276.677 61.32 276.677 62.6213 276.677 63.688C276.719 64.712 276.741 65.3093 276.741 65.48C276.741 65.7787 276.634 66.2053 276.421 66.76C276.25 67.3147 275.759 67.8267 274.949 68.296C274.181 68.7653 272.901 69 271.109 69C269.786 69 268.762 68.8507 268.036 68.552C267.311 68.2107 266.778 67.848 266.437 67.464C266.138 67.0373 265.967 66.6747 265.924 66.376C265.882 66.0347 265.861 65.864 265.861 65.864L265.349 34.056ZM299.664 43.016C301.242 42.888 302.458 43.0587 303.312 43.528C304.165 43.9973 304.677 44.2747 304.848 44.36C305.274 44.5733 305.658 44.808 306 45.064C306.384 45.32 306.576 45.448 306.576 45.448C306.576 45.448 306.896 45.5547 307.536 45.768C308.176 45.9813 308.922 46.4933 309.776 47.304C310.629 48.072 311.418 49.288 312.144 50.952C312.869 52.616 313.296 54.8773 313.424 57.736C313.509 59.656 313.21 61.2773 312.528 62.6C311.845 63.88 310.928 64.9467 309.776 65.8C308.666 66.6107 307.45 67.2507 306.128 67.72C304.848 68.1467 303.61 68.4453 302.416 68.616C301.264 68.7867 300.304 68.8933 299.536 68.936C298.81 68.9787 298.448 69 298.448 69C298.448 69 298.021 69 297.168 69C296.357 69 295.333 68.872 294.095 68.616C292.858 68.3173 291.621 67.7627 290.384 66.952C289.189 66.0987 288.186 64.8613 287.376 63.24C286.608 61.6187 286.266 59.464 286.352 56.776C286.437 54.088 286.928 51.8907 287.824 50.184C288.762 48.4347 289.872 47.0693 291.152 46.088C292.474 45.1067 293.775 44.4027 295.056 43.976C296.378 43.5493 297.466 43.2933 298.32 43.208C299.216 43.08 299.664 43.016 299.664 43.016ZM299.92 49.288C299.92 49.288 299.642 49.6293 299.088 50.312C298.576 50.9947 298.042 51.9547 297.488 53.192C296.976 54.4293 296.72 55.88 296.72 57.544C296.72 59.1653 296.912 60.4453 297.296 61.384C297.68 62.3227 298.085 63.0053 298.512 63.432C298.981 63.816 299.344 64.008 299.6 64.008C299.856 64.008 300.261 63.9013 300.816 63.688C301.413 63.432 301.946 62.8773 302.416 62.024C302.885 61.1707 303.098 59.8267 303.056 57.992C303.013 56.456 302.842 55.2187 302.544 54.28C302.288 53.3413 301.925 52.5093 301.456 51.784C301.029 51.016 300.517 50.184 299.92 49.288ZM342.392 69C342.392 69 342.157 69 341.688 69C341.219 69 340.621 68.8933 339.896 68.68C339.213 68.424 338.531 67.9973 337.848 67.4C337.165 66.76 336.632 65.8427 336.248 64.648C335.864 63.496 335.395 62.024 334.84 60.232C334.285 58.3973 333.795 56.4133 333.368 54.28C332.941 52.104 332.685 49.8853 332.6 47.624C332.557 45.32 332.813 43.1013 333.368 40.968C333.923 38.8347 334.925 36.936 336.376 35.272C337.656 33.7787 339.064 32.7547 340.6 32.2C342.179 31.6453 343.672 31.368 345.08 31.368C346.488 31.368 347.64 31.4533 348.536 31.624C349.475 31.7947 349.944 31.88 349.944 31.88C349.944 31.88 350.157 31.9867 350.584 32.2C351.011 32.3707 351.437 32.6267 351.864 32.968C352.291 33.3093 352.525 33.6933 352.568 34.12C352.611 34.504 352.248 34.9093 351.48 35.336C350.456 35.8907 349.432 36.3173 348.408 36.616C347.384 36.872 346.467 37.2133 345.656 37.64C344.845 38.024 344.227 38.728 343.8 39.752C343.288 40.9893 342.925 42.12 342.712 43.144C342.499 44.168 342.392 45.2987 342.392 46.536C342.392 47.7733 342.477 49.3307 342.648 51.208C342.648 51.208 343.011 51.1227 343.736 50.952C344.504 50.7387 345.379 50.5893 346.36 50.504C347.384 50.4187 348.323 50.504 349.176 50.76C350.072 51.016 350.648 51.5707 350.904 52.424C351.16 53.2347 350.947 53.896 350.264 54.408C349.581 54.92 348.728 55.3253 347.704 55.624C346.68 55.88 345.763 56.072 344.952 56.2C344.141 56.2853 343.736 56.328 343.736 56.328L346.616 65.352C346.616 65.352 346.659 65.544 346.744 65.928C346.829 66.2693 346.808 66.696 346.68 67.208C346.552 67.6773 346.168 68.104 345.528 68.488C344.888 68.8293 343.843 69 342.392 69ZM361.043 42.056C361.043 42.056 360.766 42.056 360.211 42.056C359.656 42.0133 358.995 41.8853 358.227 41.672C357.502 41.416 356.84 40.968 356.243 40.328C355.646 39.688 355.326 38.728 355.283 37.448C355.24 36.168 355.432 35.2293 355.859 34.632C356.286 33.992 356.819 33.5653 357.459 33.352C358.099 33.096 358.718 32.968 359.315 32.968C359.912 32.9253 360.339 32.8827 360.595 32.84C360.851 32.7973 361.278 32.84 361.875 32.968C362.472 33.0533 363.091 33.288 363.731 33.672C364.371 34.0133 364.904 34.5467 365.331 35.272C365.758 35.9547 365.928 36.872 365.843 38.024C365.758 39.1333 365.459 39.9867 364.947 40.584C364.478 41.1387 363.923 41.5227 363.283 41.736C362.686 41.9067 362.152 42.0133 361.683 42.056C361.256 42.056 361.043 42.056 361.043 42.056ZM358.803 65.032L357.267 50.44C357.267 50.44 357.16 50.2267 356.947 49.8C356.776 49.3307 356.648 49.0107 356.563 48.84C356.52 48.712 356.435 48.456 356.307 48.072C356.222 47.6453 356.328 47.1973 356.627 46.728C356.968 46.2587 357.694 45.9173 358.803 45.704C359.955 45.4907 361.15 45.4267 362.387 45.512C363.624 45.5973 364.712 45.9813 365.651 46.664C366.632 47.304 367.23 48.4347 367.443 50.056C367.614 51.2507 367.784 52.68 367.955 54.344C368.126 55.9653 368.275 57.5653 368.403 59.144C368.574 60.68 368.702 61.9813 368.787 63.048C368.915 64.072 368.979 64.584 368.979 64.584C368.979 64.584 369 64.8187 369.043 65.288C369.086 65.7147 369.022 66.2267 368.851 66.824C368.68 67.3787 368.254 67.8907 367.571 68.36C366.931 68.7867 365.886 69 364.435 69C362.984 69 361.875 68.808 361.107 68.424C360.339 67.9973 359.784 67.528 359.443 67.016C359.144 66.504 358.952 66.056 358.867 65.672C358.824 65.2453 358.803 65.032 358.803 65.032ZM379.704 69C379.704 69 379.427 69 378.872 69C378.317 69 377.677 68.9147 376.952 68.744C376.269 68.5733 375.651 68.232 375.096 67.72C374.541 67.208 374.221 66.4613 374.136 65.48C374.093 64.6693 374.008 63.5173 373.88 62.024C373.752 60.5307 373.603 58.9093 373.432 57.16C373.304 55.368 373.176 53.6827 373.048 52.104C372.92 50.4827 372.813 49.16 372.728 48.136C372.643 47.112 372.6 46.6 372.6 46.6C372.6 46.6 372.621 46.4293 372.664 46.088C372.707 45.704 372.856 45.2773 373.112 44.808C373.411 44.3387 373.901 43.912 374.584 43.528C375.309 43.144 376.312 42.9307 377.592 42.888C378.872 42.8453 379.875 42.9733 380.6 43.272C381.325 43.5707 381.837 43.9333 382.136 44.36C382.477 44.744 382.669 45.1067 382.712 45.448C382.797 45.7467 382.84 45.896 382.84 45.896C382.84 45.896 383.224 45.704 383.992 45.32C384.803 44.8933 385.827 44.4667 387.064 44.04C388.344 43.6133 389.688 43.3573 391.096 43.272C391.309 43.272 391.715 43.272 392.312 43.272C392.952 43.272 393.635 43.4213 394.36 43.72C395.128 43.976 395.875 44.488 396.6 45.256C397.368 46.024 398.008 47.1547 398.52 48.648C399.032 50.0987 399.331 52.0187 399.416 54.408C399.544 57.3947 399.629 59.848 399.672 61.768C399.757 63.688 399.693 65.1813 399.48 66.248C399.309 67.272 398.883 67.9973 398.2 68.424C397.56 68.808 396.536 69 395.128 69C393.763 69 392.76 68.808 392.12 68.424C391.48 68.04 391.075 67.592 390.904 67.08C390.733 66.5253 390.648 66.0347 390.648 65.608C390.648 65.352 390.691 64.6693 390.776 63.56C390.861 62.408 390.925 61.1067 390.968 59.656C391.011 58.1627 390.989 56.712 390.904 55.304C390.861 53.8533 390.691 52.68 390.392 51.784C390.136 50.8453 389.709 50.3973 389.112 50.44C388.387 50.4827 387.704 50.76 387.064 51.272C386.467 51.7413 385.933 52.296 385.464 52.936C384.995 53.5333 384.632 54.0667 384.376 54.536C384.12 54.9627 383.992 55.176 383.992 55.176L384.632 64.84C384.632 64.84 384.632 65.0533 384.632 65.48C384.632 65.9067 384.504 66.3973 384.248 66.952C383.992 67.464 383.501 67.9333 382.776 68.36C382.093 68.7867 381.069 69 379.704 69ZM423.972 27.272C423.972 27.272 424.228 27.3147 424.74 27.4C425.294 27.4427 425.913 27.5707 426.596 27.784C427.278 27.9547 427.897 28.2533 428.452 28.68C429.049 29.064 429.369 29.6187 429.412 30.344C429.454 30.8133 429.518 31.8373 429.604 33.416C429.689 34.952 429.774 36.7867 429.86 38.92C429.988 41.0533 430.094 43.272 430.18 45.576C430.308 47.8373 430.414 49.9707 430.5 51.976C430.585 53.9387 430.649 55.5387 430.692 56.776C430.777 58.0133 430.82 58.632 430.82 58.632C430.82 58.632 430.798 58.888 430.756 59.4C430.756 59.912 430.628 60.552 430.372 61.32C430.158 62.088 429.753 62.8347 429.156 63.56C427.876 65.1387 426.254 66.44 424.292 67.464C422.329 68.488 419.641 69 416.228 69C413.966 69 411.79 68.5733 409.7 67.72C407.652 66.8667 405.966 65.5227 404.644 63.688C403.364 61.8107 402.745 59.3787 402.788 56.392C402.83 54.1307 403.321 52.1467 404.26 50.44C405.241 48.7333 406.521 47.3253 408.1 46.216C409.678 45.064 411.428 44.2107 413.348 43.656C415.31 43.1013 417.273 42.824 419.236 42.824L418.788 31.752C418.788 31.752 418.745 31.56 418.66 31.176C418.574 30.7493 418.617 30.2587 418.788 29.704C419.001 29.1493 419.492 28.6373 420.26 28.168C421.028 27.6987 422.265 27.4 423.972 27.272ZM419.428 48.392C418.446 48.3067 417.508 48.6693 416.612 49.48C415.716 50.2907 414.969 51.336 414.372 52.616C413.817 53.8533 413.54 55.0907 413.54 56.328C413.54 58.1627 413.838 59.7413 414.436 61.064C415.076 62.3867 415.908 63.048 416.932 63.048C417.614 63.048 418.19 62.7707 418.66 62.216C419.129 61.6613 419.492 61.1067 419.748 60.552C420.004 59.9547 420.132 59.656 420.132 59.656L419.428 48.392ZM456.887 69C456.887 69 456.61 69 456.055 69C455.543 69.0427 454.924 68.9787 454.199 68.808C453.516 68.6373 452.876 68.296 452.279 67.784C451.724 67.2293 451.383 66.3973 451.255 65.288C451.17 64.392 451.063 63.1973 450.935 61.704C450.85 60.2107 450.743 58.632 450.615 56.968C450.487 55.2613 450.38 53.6613 450.295 52.168C450.21 50.6747 450.124 49.4587 450.039 48.52C449.996 47.5387 449.975 47.048 449.975 47.048C449.975 47.048 449.954 46.856 449.911 46.472C449.911 46.088 449.996 45.64 450.167 45.128C450.38 44.5733 450.786 44.0827 451.383 43.656C451.98 43.2293 452.919 42.9947 454.199 42.952C455.906 42.8667 457.164 42.9733 457.975 43.272C458.786 43.5707 459.319 43.8907 459.575 44.232C459.874 44.5733 460.023 44.744 460.023 44.744C460.023 44.744 460.343 44.5733 460.983 44.232C461.666 43.8907 462.583 43.5707 463.735 43.272C464.887 42.9307 466.167 42.76 467.575 42.76C469.196 42.76 470.519 42.9307 471.543 43.272C472.61 43.6133 473.399 43.9547 473.911 44.296C474.423 44.6373 474.679 44.808 474.679 44.808C475.916 44.04 477.175 43.592 478.455 43.464C479.778 43.336 481.271 43.272 482.935 43.272C482.935 43.272 483.362 43.336 484.215 43.464C485.068 43.5493 486.135 43.8053 487.415 44.232C488.695 44.6587 489.975 45.3627 491.255 46.344C492.578 47.2827 493.687 48.6053 494.583 50.312C495.479 51.976 495.948 54.1307 495.991 56.776C496.076 60.104 495.991 62.6213 495.735 64.328C495.479 66.0347 495.116 67.208 494.647 67.848C494.178 68.488 493.602 68.8507 492.919 68.936C492.236 68.9787 491.49 69 490.679 69C489.058 69 487.671 68.6587 486.519 67.976C485.41 67.2507 484.983 66.1627 485.239 64.712C485.324 64.1573 485.388 63.2613 485.431 62.024C485.516 60.7867 485.516 59.4427 485.431 57.992C485.346 56.4987 485.154 55.0907 484.855 53.768C484.556 52.4027 484.108 51.2933 483.511 50.44C482.914 49.544 482.124 49.1173 481.143 49.16C480.418 49.16 479.842 49.4587 479.415 50.056C479.031 50.6107 478.754 51.1653 478.583 51.72C478.412 52.2747 478.327 52.552 478.327 52.552L479.159 64.712C479.159 64.712 479.159 64.9253 479.159 65.352C479.202 65.7787 479.116 66.2907 478.903 66.888C478.69 67.4427 478.22 67.9333 477.495 68.36C476.77 68.7867 475.639 69 474.103 69C472.567 69 471.394 68.808 470.583 68.424C469.815 68.04 469.282 67.592 468.983 67.08C468.684 66.568 468.514 66.12 468.471 65.736C468.428 65.352 468.407 65.1387 468.407 65.096C468.407 65.0533 468.428 64.6267 468.471 63.816C468.514 62.9627 468.535 61.896 468.535 60.616C468.578 59.336 468.535 57.992 468.407 56.584C468.279 55.1333 468.044 53.7893 467.703 52.552C467.404 51.272 466.935 50.2907 466.295 49.608C465.698 48.8827 464.887 48.584 463.863 48.712C462.882 48.84 462.178 49.16 461.751 49.672C461.324 50.1413 461.047 50.5893 460.919 51.016C460.834 51.4427 460.791 51.656 460.791 51.656L461.815 65.16C461.815 65.16 461.815 65.352 461.815 65.736C461.858 66.12 461.751 66.568 461.495 67.08C461.282 67.592 460.812 68.04 460.087 68.424C459.404 68.808 458.338 69 456.887 69ZM524.763 49.672C524.635 51.8053 524.037 53.5333 522.971 54.856C521.904 56.136 520.603 57.1173 519.067 57.8C517.573 58.44 516.08 58.888 514.587 59.144C513.093 59.3573 511.835 59.464 510.811 59.464C509.829 59.464 509.339 59.464 509.339 59.464C509.595 60.9573 509.957 62.024 510.427 62.664C510.896 63.304 511.408 63.6667 511.963 63.752C512.56 63.8373 513.115 63.7947 513.627 63.624C514.139 63.4107 514.544 63.176 514.843 62.92C515.184 62.664 515.355 62.536 515.355 62.536C515.355 62.536 515.589 62.344 516.059 61.96C516.528 61.576 517.253 61.2133 518.235 60.872C519.259 60.488 520.539 60.296 522.075 60.296C523.824 60.296 524.997 60.5307 525.595 61C526.235 61.4267 526.533 61.9387 526.491 62.536C526.491 63.0907 526.363 63.6027 526.107 64.072C525.893 64.4987 525.787 64.712 525.787 64.712C525.787 64.712 525.595 64.9253 525.211 65.352C524.869 65.736 524.229 66.2053 523.291 66.76C522.352 67.3147 521.051 67.8267 519.387 68.296C517.723 68.7227 515.589 68.9573 512.987 69C510.469 69.0427 508.357 68.7013 506.651 67.976C504.944 67.2507 503.536 66.312 502.427 65.16C501.317 63.9653 500.464 62.728 499.867 61.448C499.312 60.1253 498.907 58.9093 498.651 57.8C498.437 56.648 498.331 55.752 498.331 55.112C498.331 54.472 498.373 53.64 498.459 52.616C498.587 51.592 498.864 50.5253 499.291 49.416C499.76 48.264 500.464 47.176 501.403 46.152C502.341 45.128 503.621 44.296 505.243 43.656C506.907 43.016 509.019 42.6747 511.579 42.632C514.779 42.5893 517.275 42.8667 519.067 43.464C520.859 44.0613 522.16 44.7867 522.971 45.64C523.781 46.4933 524.272 47.304 524.443 48.072C524.656 48.84 524.763 49.3733 524.763 49.672ZM508.443 55.048C511.045 54.8347 512.987 54.28 514.267 53.384C515.547 52.488 516.293 51.4853 516.507 50.376C516.72 49.2667 516.507 48.328 515.867 47.56C515.269 46.7493 514.352 46.3867 513.115 46.472C511.877 46.5147 510.939 46.984 510.299 47.88C509.659 48.7333 509.211 49.736 508.955 50.888C508.699 51.9973 508.549 52.9787 508.507 53.832C508.464 54.6427 508.443 55.048 508.443 55.048Z" fill="#FF97BA"/>
</g>
<rect x="703" y="23.5" width="55" height="54" rx="11.5" fill="#E7FFF8" stroke="#2CA49C" stroke-width="7"/>
<rect x="632" y="23.5" width="55" height="54" rx="11.5" fill="#E7FFF8" stroke="#2CA49C" stroke-width="7"/>
<path d="M573 23.5C566.649 23.5 561.5 28.6487 561.5 35V66C561.5 72.3513 566.649 77.5 573 77.5H605C611.351 77.5 616.5 72.3513 616.5 66V35C616.5 28.6487 611.351 23.5 605 23.5H573Z" fill="#E7FFF8" stroke="#2CA49C" stroke-width="7"/>
<rect x="645.5" y="36.5" width="28" height="28" rx="9.5" fill="#E7FFF8" stroke="#2CA49C" stroke-width="7"/>
<path d="M574 63H604" stroke="#2CA49C" stroke-width="7" stroke-linecap="round"/>
<path d="M745.5 35.5L716 65" stroke="#2CA49C" stroke-width="7" stroke-linecap="round"/>
<path d="M716 35.5L745.5 65" stroke="#2CA49C" stroke-width="7" stroke-linecap="round"/>
<circle cx="48.4048" cy="51" r="22.5" fill="#FFD26B" stroke="#FF6865" stroke-width="5"/>
<path d="M25.6729 59C23.0063 61.2222 16.9927 65.3147 19.6729 69C23.0669 73.6666 55.0063 61.6666 73.1257 42.3333C83.5216 31.2409 79.0063 29.6667 68.4049 35.0003" stroke="#FF6865" stroke-width="6" stroke-linecap="round"/>
<defs>
<filter id="filter0_d_13_3" x="0" y="0" width="824" height="1135" filterUnits="userSpaceOnUse" color-interpolation-filters="sRGB">
<feFlood flood-opacity="0" result="BackgroundImageFix"/>
<feColorMatrix in="SourceAlpha" type="matrix" values="0 0 0 0 0 0 0 0 0 0 0 0 0 0 0 0 0 0 127 0" result="hardAlpha"/>
<feOffset dx="43" dy="43"/>
<feComposite in2="hardAlpha" operator="out"/>
<feColorMatrix type="matrix" values="0 0 0 0 0.327734 0 0 0 0 0.327734 0 0 0 0 0.327734 0 0 0 1 0"/>
<feBlend mode="normal" in2="BackgroundImageFix" result="effect1_dropShadow_13_3"/>
<feBlend mode="normal" in="SourceGraphic" in2="effect1_dropShadow_13_3" result="shape"/>
</filter>
<filter id="filter1_d_13_3" x="85.152" y="27.272" width="443.402" height="44.792" filterUnits="userSpaceOnUse" color-interpolation-filters="sRGB">
<feFlood flood-opacity="0" result="BackgroundImageFix"/>
<feColorMatrix in="SourceAlpha" type="matrix" values="0 0 0 0 0 0 0 0 0 0 0 0 0 0 0 0 0 0 127 0" result="hardAlpha"/>
<feOffset dx="2" dy="3"/>
<feComposite in2="hardAlpha" operator="out"/>
<feColorMatrix type="matrix" values="0 0 0 0 0.327734 0 0 0 0 0.327734 0 0 0 0 0.327734 0 0 0 1 0"/>
<feBlend mode="normal" in2="BackgroundImageFix" result="effect1_dropShadow_13_3"/>
<feBlend mode="normal" in="SourceGraphic" in2="effect1_dropShadow_13_3" result="shape"/>
</filter>
</defs>
</svg>
