<svg width="197" height="142" viewBox="0 0 197 142" fill="none" xmlns="http://www.w3.org/2000/svg">
<path d="M177.5 0H19.0005C9 0 0.500488 9.5 0.500488 18.5V126C0.500488 136.5 10 141.5 19.0005 141.5H179.5C190 141.5 197 133.5 197 124V18.5C197 8 188.5 0 177.5 0Z" fill="#009A38"/>
<path d="M179 70.5L99 10L17 70.5L99 132L179 70.5Z" fill="#FDE000"/>
<circle cx="98.5" cy="70.5" r="35.5" fill="#002775"/>
<path d="M133 79C109.4 57.8 79.1667 53.3333 67 53.9999C65.5 56.9999 64 60.9999 63.5 64.4999C96.3 64.0999 120.5 81 128.5 89.5C130.9 86.3 132.5 81.3333 133 79Z" fill="#C9E9D2"/>
<rect x="115" y="61" width="5" height="5" fill="#87C9F3"/>
<rect x="71" y="83" width="5" height="5" fill="#87C9F3"/>
<rect x="82" y="72" width="5" height="5" fill="#87C9F3"/>
<rect x="93" y="78" width="5" height="5" fill="#87C9F3"/>
<rect x="99" y="94" width="5" height="5" fill="#87C9F3"/>
<rect x="104" y="83" width="5" height="5" fill="#87C9F3"/>
<rect x="115" y="89" width="5" height="5" fill="#87C9F3"/>
<rect x="66" y="72" width="5" height="5" fill="#87C9F3"/>
</svg>
